<svg width="114" height="33" viewBox="0 0 114 33" fill="none" xmlns="http://www.w3.org/2000/svg">
<path d="M15.0111 0L30.0222 26H0L15.0111 0Z" fill="#155BD5"/>
<path opacity="0.5" d="M26.8968 0L41.9079 26H11.8857L26.8968 0Z" fill="#155BD5"/>
<path d="M55.3629 26.0385L57.1197 20.6376H65.6611L67.4179 26.0385H72.7808L64.6208 2.35309H58.1715L50 26.0385H55.3629ZM58.3911 16.7286L61.3037 7.76559H61.4886L64.4012 16.7286H58.3911Z" fill="#2D2D2D"/>
<path d="M75.5374 32.7H80.4611V23.1935H80.6114C81.2933 24.6738 82.7843 26.3276 85.6507 26.3276C89.696 26.3276 92.8512 23.1241 92.8512 17.1796C92.8512 11.0732 89.5573 8.04321 85.6622 8.04321C82.6918 8.04321 81.2702 9.81261 80.6114 11.2583H80.3918V8.27451H75.5374V32.7ZM80.3571 17.1565C80.3571 13.9876 81.6978 11.9637 84.0903 11.9637C86.5291 11.9637 87.8236 14.0802 87.8236 17.1565C87.8236 20.2559 86.506 22.407 84.0903 22.407C81.721 22.407 80.3571 20.3253 80.3571 17.1565Z" fill="#2D2D2D"/>
<path d="M96.134 32.7H101.057V23.1935H101.208C101.89 24.6738 103.38 26.3276 106.247 26.3276C110.292 26.3276 113.447 23.1241 113.447 17.1796C113.447 11.0732 110.153 8.04321 106.258 8.04321C103.288 8.04321 101.866 9.81261 101.208 11.2583H100.988V8.27451H96.134V32.7ZM100.953 17.1565C100.953 13.9876 102.294 11.9637 104.687 11.9637C107.125 11.9637 108.42 14.0802 108.42 17.1565C108.42 20.2559 107.102 22.407 104.687 22.407C102.317 22.407 100.953 20.3253 100.953 17.1565Z" fill="#2D2D2D"/>
</svg>
